<svg xmlns="http://www.w3.org/2000/svg" xmlns:xlink="http://www.w3.org/1999/xlink" viewBox="0 0 500 500"><defs><style>.cls-1,.cls-2,.cls-3{stroke:#000;}.cls-1,.cls-2{stroke-miterlimit:10;}.cls-1{opacity:0.9;fill:url(#linear-gradient);}.cls-2,.cls-3{fill:none;stroke-width:8px;}.cls-2{stroke-linecap:round;}.cls-3{stroke-linejoin:round;}</style><linearGradient id="linear-gradient" x1="249" y1="185.22" x2="249" y2="316.05" gradientUnits="userSpaceOnUse"><stop offset="0" stop-color="#ff8f00"/><stop offset="1" stop-color="#ff4081"/></linearGradient></defs><title>logo black</title><g id="LOGO_BLACK" data-name="LOGO BLACK"><g id="LOGO-2" data-name="LOGO"><path class="cls-1" d="M249,166A116.76,116.76,0,0,0,136.77,314.64c9.47-4.56,13.49-13.3,28.9-13.3,20.83,0,20.83,16,41.67,16s20.83-16,41.66-16,20.83,16,41.67,16,20.83-16,41.67-16c15.41,0,19.43,8.75,28.9,13.31A116.76,116.76,0,0,0,249,166Z"/><path class="cls-2" d="M124,339c20.83,0,20.83-16,41.67-16s20.83,16,41.67,16,20.83-16,41.66-16,20.83,16,41.67,16,20.83-16,41.67-16,20.83,16,41.67,16"/><path class="cls-2" d="M124,317c20.83,0,20.83-16,41.67-16s20.83,16,41.67,16,20.83-16,41.66-16,20.83,16,41.67,16,20.83-16,41.67-16,20.83,16,41.67,16"/><path class="cls-3" d="M249,165A116.76,116.76,0,0,0,136.77,313.64c9.47-4.56,13.49-13.3,28.9-13.3,20.83,0,20.83,16,41.67,16s20.83-16,41.66-16,20.83,16,41.67,16,20.83-16,41.67-16c15.41,0,19.43,8.75,28.9,13.31A116.76,116.76,0,0,0,249,165Z"/></g></g></svg>